# xmcd
# 
# Track frame offsets:
#     150
#     15052
#     59148
#     80846
#     110359
#     157950
#     182104
#     193818
#     222372
#     252350
#     274391
#     304149
# 
# Disc length: 4503
# 
# Revision: 0
# Processed by: cddbd v1.5.2PL0 Copyright (c) Steve Scherf et al.
# Submitted via: fre:ac v1.0.17
# 
DISCID=ac11950c
DTITLE=Blue Haven - Blues Party 'Live'
DYEAR=2006
DGENRE=Blues
TTITLE0=Fourth Street Bounce
TTITLE1=All Nite Long
TTITLE2=Legs Like Bettie Page
TTITLE3=Big Blues Party
TTITLE4=Texas Flood
TTITLE5=T-Bone Shuffle
TTITLE6=Rockin' Robin
TTITLE7=Sunset Sonata
TTITLE8=Slide, Rollin' and Tumblin'
TTITLE9=Honey Do Woman
TTITLE10=Chicken Heads
TTITLE11=My Bad Boy
EXTD=
EXTT0=
EXTT1=
EXTT2=
EXTT3=
EXTT4=
EXTT5=
EXTT6=
EXTT7=
EXTT8=Slide - Rollin' and Tumblin'
EXTT9=
EXTT10=
EXTT11=
PLAYORDER=
